<svg xmlns="http://www.w3.org/2000/svg" id="bc22ebc2-9ab9-40b4-899d-b64ce8ceba4e" data-name="Layer 1" viewBox="0 0 32 32">
  <g>
    <path d="M28,.999H19V31h9a2,2,0,0,0,2-2V2.999A2,2,0,0,0,28,.999ZM21,29V2.999h7V5H26V7h2v3H24v2h4v3H26v2h2v3H24v2h4v3H26v2h2v2Z"/>
    <path d="M10.8741,1.9985a2.2512,2.2512,0,0,0-3.7423,0L1.999,9.7346l-.0039,18.26A3.0126,3.0126,0,0,0,4.999,30.999h7.9971A3.0128,3.0128,0,0,0,16,27.9956L16.0029,10ZM13.998,24H11.9l.0031-11.5919L14,11.93ZM8.792,3.1094a.2253.2253,0,0,1,.4141,0l1.9773,2.94h-4.37ZM5.5287,7.949H12.467l1.4776,2.2657-2.846.6849L9,10l-2.1309.9-2.8235-.6783ZM10.1,12.4154,10.0968,24H7.9l.0032-11.588L9,12ZM4.0026,12,6.1,12.5213,6.0969,24H4Zm8.9909,16.999h-7.99A1.0068,1.0068,0,0,1,4,27.9949L4,26h9.9973l0,1.9952A1.007,1.007,0,0,1,12.9935,28.999Z"/>
  </g>
</svg>
