<svg viewBox="0 0 12 12" xmlns="http://www.w3.org/2000/svg" data-tid="7f5670e8">
  <path d="M9.00424 4.50769C8.59409 4.81521 8.06925 4.99577 7.50464 4.99577C6.93835 4.99577 6.4119 4.81521 6.00007 4.50739C5.58841 4.81539 5.06199 4.99577 4.49588 4.99577C3.93126 4.99577 3.40663 4.81531 2.99648 4.50759C2.44133 4.92082 1.66938 5.11585 0.857422 4.91136V10.9957H11.143L11.1431 4.91136C10.3401 5.11355 9.56638 4.92591 9.00426 4.50769H9.00424ZM9.85732 9.70993H2.14312V6.2814H9.85732V9.70993Z" fill="currentColor"></path>
  <path d="M11.1578 0.709991L11.9337 2.64395C11.9995 2.80827 12.0229 2.99162 11.9736 3.16162C11.8118 3.72274 11.2193 4.13857 10.513 4.13857C9.7997 4.13857 9.19604 3.71427 9.03938 3.14499C9.02742 3.10154 8.97311 3.10174 8.96136 3.14529C8.80839 3.71439 8.21759 4.13859 7.5043 4.13859C6.79102 4.13859 6.19373 3.71449 6.03907 3.14521C6.02721 3.10167 5.9728 3.10167 5.96104 3.14521C5.80619 3.71439 5.20891 4.13859 4.49573 4.13859C3.78255 4.13859 3.19174 3.71449 3.03878 3.14521C3.02702 3.10167 2.97261 3.10147 2.96076 3.14491C2.80411 3.71429 2.20025 4.1386 1.48705 4.1386C0.780729 4.1386 0.188236 3.72276 0.0262987 3.16185C-0.0228283 2.99185 0.000490455 2.80841 0.0662576 2.64418L0.842218 0.710017L11.1578 0.709991Z" fill="currentColor"></path>
</svg>
