<svg title="Heart Outline Updated" xmlns="http://www.w3.org/2000/svg" width="24" height="24" viewBox="0 0 24 24" encoding="UTF-8">
    <path d="M12 4.36693C10.675 3.27975 9.24521 2.71991 7.72945 2.71991C4.56517 2.71991 2 5.28506 2 8.44934C2 12.7785 5.19725 16.9814 11.4484 21.1143L11.9998 21.4789L12.5513 21.1143C18.8026 16.9814 22 12.7785 22 8.44934C22 5.28505 19.4349 2.71991 16.2706 2.71991C14.7548 2.71991 13.325 3.27975 12 4.36693ZM4 8.44934C4 6.38963 5.66973 4.71991 7.72945 4.71991C8.95344 4.71991 10.132 5.27022 11.296 6.42424L12 7.12225L12.7041 6.42423C13.8681 5.27022 15.0466 4.71991 16.2706 4.71991C18.3303 4.71991 20 6.38962 20 8.44934C20 11.8468 17.3766 15.4058 11.9999 19.0755C6.62334 15.4058 4 11.8468 4 8.44934Z"/>
</svg>
